# xmcd CD database file
#
# Track frame offsets:
#	150
#	17620
#	35857
#	50575
#
# Disc length: 1002 seconds
#
# Revision: 0
# Processed by: cddbd v1.5.1PL0 Copyright (c) Steve Scherf et al.
# Submitted via: CDex 1.51
#
DISCID=2f03e804
DTITLE=NIRGILIS - 真夜中のシュナイダー
DYEAR=2003
DGENRE=JPop
TTITLE0=真夜中のシュナイダー
TTITLE1=zero
TTITLE2=サンシャインガール
TTITLE3=真夜中のシュナイダー endless S...madness dub
EXTD=YEAR: 2003
EXTT0=
EXTT1=
EXTT2=
EXTT3=
PLAYORDER=
